<svg version="1.1" xmlns="http://www.w3.org/2000/svg" viewBox="0 0 10020 783.5250091552734" width="10020" height="783.5250091552734">
  <!-- svg-source:excalidraw -->
  
  <defs>
    <style>
      @font-face {
        font-family: "Virgil";
        src: url("https://excalidraw.com/Virgil.woff2");
      }
      @font-face {
        font-family: "Cascadia";
        src: url("https://excalidraw.com/Cascadia.woff2");
      }
    </style>
  </defs>
  <rect x="0" y="0" width="10020" height="783.5250091552734" fill="#fff0"></rect><g stroke-linecap="round" transform="translate(10 10) rotate(0 5000 0.5)"><path d="M-0.52 -0.26 C3022.65 -30.2, 6044.59 -29.2, 9999.32 0.22 M0.38 -0.31 C3948.03 -0.44, 7895.41 0.2, 9999.95 0.08 M10000.08 -0.06 C10000.09 0.27, 10000.05 0.48, 10000.09 0.92 M9999.97 0.01 C9999.95 0.33, 9999.98 0.72, 10000 0.99 M10000.22 1.51 C7095.77 35.76, 4193.15 34.95, -0.25 0.75 M10000.01 1.13 C7827.97 2.74, 5656.23 3.35, -0.33 0.84 M-0.04 1.01 C0 0.63, -0.06 0.15, 0.05 -0.03 M-0.04 0.95 C-0.04 0.73, -0.03 0.59, -0.05 -0.02" stroke="transparent" stroke-width="1" fill="none"></path></g><g transform="translate(626.4000244140625 744.7250213623047) rotate(0 0.399993896484375 14.399993896484375)" stroke="none"><path fill="#000" d="M 1.69,0.96 Q 1.69,0.96 0.75,2.56 -0.18,4.16 -1.01,5.72 -1.85,7.28 -2.19,9.49 -2.54,11.71 -2.80,12.82 -3.06,13.92 -2.08,12.84 -1.10,11.76 0.11,9.84 1.34,7.91 2.12,6.00 2.90,4.08 3.13,2.99 3.35,1.89 3.45,1.64 3.54,1.39 3.64,1.18 3.73,0.97 3.87,0.79 4.01,0.60 4.20,0.46 4.38,0.31 4.59,0.22 4.80,0.12 5.03,0.08 5.25,0.03 5.49,0.05 5.72,0.06 5.94,0.13 6.16,0.19 6.36,0.31 6.56,0.43 6.72,0.59 6.89,0.76 7.01,0.96 7.13,1.15 7.20,1.37 7.27,1.59 7.29,1.83 7.30,2.06 7.26,2.29 7.22,2.51 6.74,5.90 6.26,9.29 5.81,12.43 5.36,15.57 5.16,18.23 4.95,20.89 4.41,22.90 3.87,24.90 3.75,26.17 3.62,27.45 3.54,27.64 3.45,27.84 3.33,28.01 3.20,28.18 3.04,28.31 2.87,28.44 2.68,28.54 2.49,28.63 2.28,28.67 2.07,28.71 1.86,28.70 1.65,28.70 1.44,28.64 1.24,28.58 1.06,28.47 0.87,28.37 0.72,28.22 0.57,28.07 0.45,27.89 0.34,27.71 0.27,27.51 0.20,27.31 0.19,27.10 0.17,26.89 0.20,26.68 0.24,26.47 0.57,24.33 0.90,22.20 2.15,19.86 3.41,17.52 3.61,17.28 3.81,17.04 4.07,16.88 4.34,16.72 4.64,16.66 4.94,16.59 5.25,16.62 5.56,16.66 5.84,16.79 6.12,16.92 6.35,17.13 6.57,17.34 6.72,17.62 6.87,17.89 6.92,18.20 6.97,18.50 6.92,18.81 6.87,19.11 6.72,19.39 6.58,19.66 6.35,19.87 6.13,20.09 5.84,20.22 5.56,20.35 5.26,20.38 4.95,20.42 4.64,20.35 4.34,20.28 4.08,20.12 3.81,19.96 3.61,19.73 3.41,19.49 3.29,19.20 3.18,18.92 3.16,18.61 3.14,18.30 3.23,18.00 3.31,17.70 3.48,17.44 3.66,17.19 3.90,17.00 4.15,16.81 4.44,16.71 4.74,16.61 5.05,16.61 5.36,16.61 5.65,16.71 5.95,16.81 6.19,17.00 6.44,17.18 6.61,17.44 6.79,17.70 6.87,18.00 6.95,18.29 6.94,18.60 6.92,18.91 6.81,19.20 6.69,19.49 6.69,19.49 6.69,19.49 5.47,21.27 4.25,23.04 3.94,25.24 3.62,27.45 3.54,27.64 3.45,27.84 3.33,28.01 3.20,28.18 3.04,28.31 2.87,28.44 2.68,28.54 2.49,28.63 2.28,28.67 2.07,28.71 1.86,28.70 1.65,28.70 1.44,28.64 1.24,28.58 1.06,28.47 0.87,28.37 0.72,28.22 0.57,28.07 0.45,27.89 0.34,27.71 0.27,27.51 0.20,27.31 0.19,27.10 0.17,26.89 0.20,26.68 0.24,26.47 0.56,25.26 0.89,24.04 1.41,22.36 1.94,20.69 2.07,17.93 2.21,15.17 2.56,12.04 2.91,8.92 3.22,5.16 3.54,1.39 3.64,1.18 3.73,0.97 3.87,0.79 4.01,0.60 4.19,0.46 4.38,0.31 4.59,0.22 4.80,0.12 5.03,0.08 5.25,0.03 5.49,0.05 5.72,0.06 5.94,0.13 6.16,0.19 6.36,0.31 6.56,0.43 6.72,0.59 6.89,0.76 7.01,0.96 7.13,1.15 7.20,1.37 7.27,1.59 7.29,1.83 7.30,2.06 7.26,2.29 7.22,2.51 7.03,2.75 6.84,2.98 6.39,4.11 5.93,5.24 5.12,7.48 4.31,9.72 2.87,12.14 1.43,14.57 -0.29,15.97 -2.02,17.37 -4.05,16.25 -6.07,15.14 -6.03,13.18 -5.98,11.22 -5.60,8.40 -5.22,5.57 -4.36,3.92 -3.49,2.27 -2.59,0.65 -1.69,-0.96 -1.55,-1.15 -1.41,-1.34 -1.22,-1.49 -1.04,-1.64 -0.83,-1.74 -0.62,-1.84 -0.39,-1.89 -0.16,-1.94 0.06,-1.93 0.30,-1.92 0.52,-1.85 0.75,-1.79 0.95,-1.67 1.16,-1.56 1.33,-1.39 1.50,-1.23 1.62,-1.04 1.75,-0.84 1.83,-0.62 1.90,-0.39 1.92,-0.16 1.94,0.06 1.90,0.30 1.87,0.53 1.78,0.74 1.69,0.96 1.69,0.96 L 1.69,0.96 Z"></path></g><g transform="translate(736 605.5250091552734) rotate(0 -11.20001220703125 10.800003051757812)" stroke="none"><path fill="#000" d="M 0.54,2.19 Q 0.54,2.19 -4.08,3.22 -8.70,4.25 -12.18,5.53 -15.65,6.81 -17.41,7.62 -19.16,8.43 -19.37,8.48 -19.58,8.54 -19.79,8.54 -20.01,8.54 -20.22,8.50 -20.42,8.45 -20.62,8.35 -20.81,8.25 -20.97,8.11 -21.13,7.97 -21.26,7.80 -21.38,7.62 -21.46,7.42 -21.54,7.22 -21.57,7.01 -21.60,6.79 -21.58,6.58 -21.55,6.37 -21.48,6.16 -21.41,5.96 -21.29,5.78 -21.17,5.61 -21.01,5.46 -20.85,5.32 -20.66,5.21 -20.47,5.11 -18.89,6.24 -17.32,7.37 -16.30,7.80 -15.28,8.24 -13.96,8.71 -12.63,9.19 -10.96,9.91 -9.29,10.64 -9.21,13.58 -9.14,16.51 -11.07,18.35 -13.01,20.18 -14.20,21.14 -15.39,22.10 -16.96,22.92 -18.52,23.74 -21.51,22.56 -24.49,21.39 -24.62,21.01 -24.76,20.62 -24.76,20.22 -24.76,19.81 -24.64,19.43 -24.51,19.04 -24.27,18.72 -24.02,18.39 -23.69,18.16 -23.36,17.93 -22.97,17.82 -22.58,17.71 -22.17,17.73 -21.76,17.75 -21.39,17.89 -21.01,18.04 -20.70,18.30 -20.39,18.56 -20.18,18.91 -19.96,19.25 -19.87,19.65 -19.78,20.04 -19.82,20.45 -19.86,20.85 -20.03,21.22 -20.20,21.59 -20.48,21.89 -20.75,22.18 -21.11,22.37 -21.47,22.57 -21.87,22.64 -22.27,22.70 -22.67,22.64 -23.07,22.58 -23.43,22.39 -23.79,22.20 -24.07,21.91 -24.35,21.62 -24.52,21.25 -24.70,20.89 -24.74,20.48 -24.79,20.08 -24.71,19.68 -24.62,19.29 -24.41,18.94 -24.21,18.59 -23.90,18.32 -23.59,18.06 -23.22,17.91 -22.84,17.75 -22.44,17.73 -22.03,17.70 -21.64,17.81 -21.25,17.91 -20.91,18.14 -20.57,18.37 -20.33,18.69 -20.08,19.01 -20.08,19.01 -20.08,19.01 -19.09,18.78 -18.10,18.55 -17.05,17.80 -16.00,17.04 -15.07,15.08 -14.14,13.11 -15.78,12.44 -17.42,11.77 -18.29,10.10 -19.16,8.43 -19.37,8.48 -19.58,8.54 -19.79,8.54 -20.01,8.54 -20.22,8.50 -20.42,8.45 -20.62,8.35 -20.81,8.25 -20.97,8.11 -21.13,7.97 -21.26,7.80 -21.38,7.62 -21.46,7.42 -21.54,7.22 -21.57,7.01 -21.60,6.79 -21.58,6.58 -21.55,6.37 -21.48,6.16 -21.41,5.96 -21.29,5.78 -21.17,5.61 -21.01,5.46 -20.85,5.32 -20.66,5.21 -20.47,5.11 -18.73,4.26 -17.00,3.41 -13.34,1.88 -9.69,0.34 -5.11,-0.92 -0.54,-2.19 -0.27,-2.23 -0.00,-2.26 0.26,-2.23 0.53,-2.20 0.79,-2.10 1.04,-2.00 1.27,-1.85 1.49,-1.70 1.67,-1.49 1.85,-1.29 1.98,-1.05 2.11,-0.80 2.18,-0.54 2.24,-0.28 2.24,-0.00 2.24,0.26 2.18,0.53 2.12,0.79 1.99,1.03 1.86,1.28 1.68,1.48 1.50,1.69 1.28,1.84 1.05,2.00 0.80,2.09 0.54,2.19 0.54,2.19 L 0.54,2.19 Z"></path></g><g transform="translate(648.7999877929688 752.7250213623047) rotate(0 5.20001220703125 8.79998779296875)" stroke="none"><path fill="#000" d="M 1.84,-1.54 Q 1.84,-1.54 2.95,-0.12 4.05,1.29 5.18,2.55 6.30,3.82 7.02,5.05 7.74,6.27 8.42,7.62 9.09,8.96 9.81,10.46 10.54,11.97 11.23,14.91 11.92,17.86 11.78,18.21 11.65,18.56 11.40,18.85 11.16,19.14 10.84,19.34 10.52,19.53 10.15,19.62 9.78,19.70 9.41,19.66 9.03,19.62 8.69,19.47 8.35,19.31 8.07,19.05 7.80,18.80 7.62,18.46 7.44,18.13 7.37,17.76 7.31,17.39 7.37,17.02 7.43,16.64 7.60,16.31 7.78,15.98 8.05,15.71 8.32,15.45 8.66,15.29 9.00,15.13 9.38,15.09 9.75,15.05 10.12,15.12 10.49,15.20 10.82,15.40 11.14,15.59 11.39,15.87 11.63,16.16 11.77,16.51 11.92,16.86 11.94,17.23 11.96,17.61 11.86,17.98 11.76,18.34 11.55,18.65 11.34,18.97 11.05,19.20 10.75,19.43 10.39,19.55 10.03,19.67 9.66,19.67 9.28,19.68 8.92,19.56 8.56,19.44 8.26,19.21 7.96,18.99 7.75,18.68 7.53,18.37 7.43,18.00 7.33,17.64 7.34,17.26 7.36,16.89 7.36,16.89 7.36,16.89 6.90,15.45 6.45,14.01 5.68,12.53 4.91,11.05 3.96,8.92 3.01,6.80 1.77,5.51 0.54,4.22 -0.65,2.88 -1.84,1.54 -2.00,1.29 -2.16,1.05 -2.25,0.77 -2.35,0.50 -2.37,0.21 -2.40,-0.07 -2.36,-0.35 -2.31,-0.64 -2.20,-0.91 -2.09,-1.18 -1.92,-1.41 -1.75,-1.64 -1.52,-1.83 -1.30,-2.02 -1.04,-2.14 -0.78,-2.27 -0.50,-2.33 -0.21,-2.39 0.07,-2.38 0.36,-2.37 0.64,-2.30 0.92,-2.22 1.17,-2.08 1.42,-1.93 1.63,-1.73 1.84,-1.54 1.84,-1.54 L 1.84,-1.54 Z"></path></g><g transform="translate(672.7999877929688 739.9250030517578) rotate(0 2.4000244140625 13.600006103515625)" stroke="none"><path fill="#000" d="M 1.84,-0.46 Q 1.84,-0.46 2.28,1.38 2.72,3.22 3.16,4.92 3.59,6.62 4.15,8.96 4.72,11.29 4.96,13.56 5.20,15.83 5.29,17.94 5.39,20.06 5.89,22.87 6.39,25.68 6.38,25.97 6.37,26.26 6.27,26.53 6.17,26.80 5.99,27.02 5.81,27.25 5.57,27.40 5.33,27.56 5.05,27.63 4.77,27.70 4.48,27.68 4.19,27.65 3.93,27.54 3.66,27.43 3.45,27.23 3.23,27.04 3.09,26.79 2.95,26.54 2.89,26.26 2.84,25.97 2.88,25.69 2.92,25.40 3.04,25.14 3.17,24.88 3.37,24.68 3.58,24.48 3.84,24.35 4.09,24.22 4.38,24.18 4.67,24.14 4.95,24.19 5.23,24.25 5.48,24.39 5.73,24.53 5.93,24.75 6.12,24.96 6.23,25.23 6.35,25.49 6.37,25.78 6.40,26.06 6.33,26.34 6.26,26.62 6.10,26.87 5.95,27.11 5.72,27.29 5.50,27.47 5.23,27.57 4.96,27.67 4.67,27.68 4.38,27.69 4.11,27.60 3.83,27.52 3.60,27.35 3.36,27.18 3.19,26.95 3.02,26.72 2.94,26.44 2.85,26.17 2.85,26.17 2.85,26.17 2.56,23.20 2.26,20.24 2.12,18.24 1.99,16.23 1.68,14.22 1.38,12.20 0.66,9.87 -0.05,7.54 -0.46,5.83 -0.88,4.13 -1.36,2.29 -1.84,0.46 -1.87,0.23 -1.90,0.00 -1.87,-0.22 -1.85,-0.45 -1.77,-0.66 -1.69,-0.88 -1.56,-1.07 -1.43,-1.25 -1.25,-1.41 -1.08,-1.56 -0.88,-1.67 -0.68,-1.78 -0.45,-1.83 -0.23,-1.89 -0.00,-1.89 0.22,-1.89 0.44,-1.83 0.67,-1.78 0.87,-1.67 1.07,-1.57 1.25,-1.42 1.42,-1.26 1.55,-1.08 1.68,-0.89 1.76,-0.67 1.85,-0.46 1.85,-0.46 L 1.84,-0.46 Z"></path></g><g transform="translate(700.7999877929688 740.7250213623047) rotate(0 3.20001220703125 10)" stroke="none"><path fill="#000" d="M 2.18,0 Q 2.18,0 2.14,1.83 2.09,3.67 2.09,5.38 2.08,7.08 1.98,9.41 1.88,11.75 1.90,13.43 1.92,15.10 2.29,16.16 2.66,17.21 3.79,15.70 4.91,14.18 5.12,12.89 5.33,11.61 5.46,10.11 5.59,8.60 5.18,7.35 4.78,6.10 1.38,4.16 -2.00,2.21 -2.06,1.80 -2.11,1.39 -2.03,0.98 -1.95,0.57 -1.75,0.21 -1.54,-0.14 -1.23,-0.42 -0.92,-0.69 -0.54,-0.85 -0.16,-1.02 0.24,-1.05 0.66,-1.08 1.06,-0.98 1.46,-0.88 1.81,-0.66 2.16,-0.43 2.42,-0.11 2.68,0.21 2.82,0.60 2.96,0.99 2.97,1.40 2.98,1.82 2.86,2.21 2.74,2.61 2.49,2.94 2.25,3.28 1.91,3.52 1.57,3.76 1.18,3.88 0.78,4.00 0.37,3.99 -0.04,3.98 -0.43,3.84 -0.82,3.69 -1.14,3.43 -1.46,3.17 -1.68,2.82 -1.91,2.47 -2.01,2.07 -2.11,1.66 -2.07,1.25 -2.04,0.84 -1.87,0.46 -1.71,0.08 -1.43,-0.22 -1.15,-0.53 -0.79,-0.73 -0.43,-0.94 -0.02,-1.01 0.38,-1.09 0.79,-1.03 1.20,-0.98 1.57,-0.79 1.94,-0.61 2.24,-0.31 2.53,-0.02 2.71,0.34 2.90,0.72 2.90,0.72 2.90,0.72 4.22,1.10 5.55,1.49 6.96,2.29 8.38,3.09 9.25,4.70 10.12,6.31 10.04,7.65 9.97,8.99 9.81,10.74 9.65,12.49 9.18,14.53 8.70,16.57 7.49,18.11 6.28,19.66 4.30,20.33 2.32,21.01 0.56,19.89 -1.19,18.76 -1.55,16.94 -1.92,15.11 -1.90,13.43 -1.88,11.75 -1.98,9.41 -2.08,7.08 -2.09,5.38 -2.09,3.67 -2.14,1.83 -2.18,0 -2.15,-0.26 -2.12,-0.52 -2.02,-0.76 -1.93,-1.01 -1.78,-1.23 -1.63,-1.44 -1.43,-1.62 -1.24,-1.79 -1.00,-1.92 -0.77,-2.04 -0.51,-2.10 -0.26,-2.16 0.00,-2.16 0.26,-2.16 0.51,-2.10 0.77,-2.04 1.00,-1.92 1.24,-1.79 1.43,-1.62 1.63,-1.44 1.78,-1.23 1.93,-1.01 2.02,-0.76 2.12,-0.52 2.15,-0.26 2.18,0.00 2.18,0.00 L 2.18,0 Z"></path></g></svg>