<svg version="1.1" xmlns="http://www.w3.org/2000/svg" viewBox="0 0 10020 792.3249664306641" width="10020" height="792.3249664306641">
  <!-- svg-source:excalidraw -->
  
  <defs>
    <style>
      @font-face {
        font-family: "Virgil";
        src: url("https://excalidraw.com/Virgil.woff2");
      }
      @font-face {
        font-family: "Cascadia";
        src: url("https://excalidraw.com/Cascadia.woff2");
      }
    </style>
  </defs>
  <rect x="0" y="0" width="10020" height="792.3249664306641" fill="#fff0"></rect><g stroke-linecap="round" transform="translate(10 10) rotate(0 5000 0.5)"><path d="M-0.52 -0.26 C3022.65 -30.2, 6044.59 -29.2, 9999.32 0.22 M0.38 -0.31 C3948.03 -0.44, 7895.41 0.2, 9999.95 0.08 M10000.08 -0.06 C10000.09 0.27, 10000.05 0.48, 10000.09 0.92 M9999.97 0.01 C9999.95 0.33, 9999.98 0.72, 10000 0.99 M10000.22 1.51 C7095.77 35.76, 4193.15 34.95, -0.25 0.75 M10000.01 1.13 C7827.97 2.74, 5656.23 3.35, -0.33 0.84 M-0.04 1.01 C0 0.63, -0.06 0.15, 0.05 -0.03 M-0.04 0.95 C-0.04 0.73, -0.03 0.59, -0.05 -0.02" stroke="transparent" stroke-width="1" fill="none"></path></g><g transform="translate(755.2000122070312 685.5249633789062) rotate(0 78.79995727539062 48.400001525878906)" stroke="none"><path fill="#000000" d="M 0.37,1.51 Q 0.37,1.51 -2.37,2.16 -5.13,2.82 -10.72,6.23 -16.31,9.63 -25.60,17.04 -34.89,24.45 -39.98,29.18 -45.06,33.92 -48.51,39.93 -51.95,45.95 -53.44,49.63 -54.93,53.32 -52.65,56.93 -50.37,60.54 -43.84,64.34 -37.31,68.13 -28.41,70.22 -19.51,72.31 -10.73,72.52 -1.96,72.74 6.02,70.79 14.00,68.83 19.82,65.32 25.63,61.80 28.93,57.66 32.24,53.51 33.87,50.43 35.50,47.35 35.71,45.13 35.92,42.90 35.21,41.76 34.49,40.61 34.53,40.42 34.57,40.24 34.66,40.07 34.74,39.90 34.87,39.76 34.99,39.62 35.14,39.51 35.30,39.40 35.47,39.33 35.65,39.26 35.84,39.23 36.02,39.20 36.21,39.22 36.40,39.24 36.58,39.31 36.76,39.37 36.91,39.48 37.07,39.58 37.20,39.72 37.33,39.86 37.42,40.03 37.51,40.19 37.55,40.38 37.60,40.56 37.61,40.75 37.61,40.94 35.27,44.01 32.93,47.09 31.21,51.56 29.49,56.04 28.73,58.21 27.97,60.38 27.78,61.50 27.59,62.63 27.76,63.18 27.93,63.73 27.85,63.93 27.77,64.12 27.65,64.29 27.52,64.46 27.36,64.59 27.20,64.72 27.01,64.81 26.82,64.91 26.62,64.95 26.41,64.99 26.21,64.99 26.00,64.98 25.79,64.92 25.59,64.87 25.41,64.76 25.23,64.66 25.08,64.52 24.93,64.37 24.81,64.20 24.70,64.02 24.63,63.82 24.56,63.63 24.54,63.42 24.53,63.21 24.56,63.00 24.59,62.80 26.46,61.55 28.34,60.31 29.69,59.88 31.05,59.44 32.40,59.88 33.76,60.32 34.97,63.14 36.18,65.96 37.61,66.92 39.05,67.88 42.46,68.34 45.86,68.81 51.63,68.15 57.40,67.50 65.84,65.64 74.29,63.77 86.22,61.60 98.15,59.43 109.05,58.73 119.94,58.04 126.43,59.44 132.91,60.84 135.88,64.71 138.85,68.59 138.45,73.92 138.04,79.26 135.89,82.78 133.75,86.30 132.19,87.91 130.63,89.52 130.53,89.64 130.43,89.77 130.30,89.86 130.17,89.96 130.02,90.02 129.87,90.09 129.72,90.11 129.56,90.14 129.40,90.12 129.24,90.11 129.09,90.06 128.93,90.01 128.80,89.93 128.66,89.84 128.55,89.73 128.44,89.61 128.36,89.47 128.28,89.33 128.23,89.18 128.19,89.03 128.18,88.87 128.18,88.70 128.21,88.55 128.24,88.39 128.31,88.25 128.38,88.10 125.82,82.49 123.26,76.88 122.17,72.06 121.07,67.25 120.61,61.23 120.15,55.22 121.17,50.60 122.20,45.97 125.48,43.33 128.75,40.69 134.96,41.46 141.16,42.23 149.36,46.34 157.55,50.44 166.05,55.40 174.55,60.36 179.16,63.26 183.77,66.17 184.07,67.14 184.36,68.11 184.51,68.23 184.66,68.35 184.77,68.49 184.89,68.64 184.96,68.82 185.04,68.99 185.07,69.18 185.10,69.36 185.09,69.55 185.08,69.74 185.02,69.92 184.96,70.10 184.86,70.26 184.76,70.42 184.63,70.55 184.49,70.69 184.33,70.78 184.17,70.88 183.99,70.93 183.81,70.99 183.62,71.00 183.43,71.01 183.24,70.97 183.06,70.93 182.89,70.86 182.71,70.78 180.07,69.86 177.43,68.94 165.97,62.54 154.51,56.13 145.07,50.43 135.64,44.73 130.43,40.90 125.23,37.07 123.04,35.22 120.85,33.38 120.74,33.27 120.62,33.16 120.54,33.03 120.45,32.90 120.40,32.75 120.35,32.60 120.33,32.44 120.32,32.28 120.34,32.12 120.37,31.97 120.43,31.82 120.49,31.67 120.58,31.55 120.68,31.42 120.80,31.32 120.92,31.22 121.06,31.15 121.20,31.08 121.36,31.05 121.51,31.01 121.67,31.02 121.83,31.02 121.98,31.07 122.14,31.11 122.27,31.19 122.41,31.26 120.95,34.59 119.49,37.91 117.73,43.39 115.96,48.87 112.41,58.20 108.86,67.52 105.01,74.55 101.17,81.57 99.32,84.98 97.48,88.39 96.11,90.03 94.74,91.67 91.36,92.45 87.99,93.24 81.13,94.19 74.27,95.14 70.45,95.77 66.63,96.39 66.46,96.40 66.30,96.40 66.14,96.36 65.98,96.33 65.84,96.25 65.69,96.18 65.57,96.08 65.45,95.97 65.35,95.84 65.26,95.71 65.20,95.55 65.14,95.40 65.11,95.24 65.09,95.08 65.11,94.92 65.12,94.76 65.18,94.60 65.23,94.45 65.32,94.32 65.41,94.18 65.53,94.07 65.65,93.96 65.80,93.88 65.94,93.80 66.10,93.76 66.25,93.72 68.00,92.28 69.74,90.84 78.54,86.43 87.34,82.02 103.77,76.24 120.19,70.45 139.15,65.46 158.11,60.47 173.54,57.20 188.96,53.93 196.49,52.44 204.02,50.95 205.62,48.06 207.21,45.18 207.37,45.17 207.53,45.15 207.68,45.18 207.84,45.20 207.99,45.26 208.13,45.33 208.26,45.42 208.39,45.52 208.49,45.64 208.59,45.76 208.66,45.90 208.73,46.05 208.76,46.20 208.80,46.36 208.79,46.52 208.78,46.68 208.74,46.83 208.70,46.98 208.62,47.12 208.54,47.26 208.43,47.37 208.32,47.49 208.19,47.57 208.05,47.66 207.90,47.71 207.75,47.76 192.31,40.56 176.86,33.36 159.12,29.68 141.37,26.00 124.18,24.42 106.99,22.85 94.67,22.87 82.34,22.88 75.78,24.82 69.21,26.75 67.01,31.52 64.81,36.30 68.80,43.23 72.80,50.16 81.27,57.70 89.75,65.23 99.31,71.67 108.88,78.11 118.87,82.89 128.86,87.67 138.52,89.90 148.18,92.14 155.81,91.50 163.43,90.85 168.10,87.92 172.77,84.99 175.15,81.56 177.54,78.14 178.62,75.97 179.69,73.80 181.88,72.58 184.07,71.37 187.85,73.51 191.64,75.66 195.91,78.91 200.18,82.16 203.52,84.18 206.86,86.20 208.35,87.00 209.84,87.81 210.02,87.97 210.21,88.13 210.34,88.34 210.46,88.55 210.52,88.79 210.57,89.02 210.54,89.27 210.52,89.51 210.41,89.73 210.31,89.96 210.14,90.13 209.97,90.31 209.76,90.43 209.54,90.54 209.30,90.58 209.05,90.62 208.81,90.58 208.57,90.54 208.35,90.43 208.14,90.31 207.97,90.13 207.80,89.96 207.70,89.73 207.60,89.51 207.57,89.27 207.54,89.02 207.60,88.78 207.65,88.54 207.77,88.33 207.90,88.12 208.09,87.97 208.28,87.81 208.50,87.72 208.73,87.63 208.98,87.61 209.22,87.60 209.46,87.67 209.69,87.73 209.90,87.87 210.10,88.01 210.25,88.20 210.40,88.40 210.47,88.63 210.55,88.86 210.55,89.11 210.55,89.35 210.47,89.58 210.39,89.82 210.25,90.01 210.10,90.21 209.89,90.34 209.69,90.48 209.45,90.55 209.22,90.61 208.97,90.60 208.73,90.59 208.50,90.49 208.27,90.40 208.27,90.40 208.27,90.40 206.87,89.46 205.46,88.52 201.99,86.44 198.52,84.35 194.35,81.19 190.17,78.03 187.06,75.92 183.95,73.81 182.91,74.47 181.88,75.14 180.78,77.40 179.68,79.66 176.94,83.41 174.20,87.17 168.98,90.30 163.77,93.43 155.70,94.07 147.63,94.70 137.68,92.37 127.74,90.04 117.58,85.17 107.42,80.29 97.71,73.74 88.00,67.19 79.26,59.33 70.53,51.47 66.49,43.82 62.46,36.16 65.19,30.43 67.91,24.70 75.11,22.48 82.30,20.26 94.77,20.24 107.23,20.23 124.57,21.82 141.91,23.42 159.94,27.20 177.97,30.97 192.59,38.08 207.21,45.18 207.37,45.17 207.53,45.15 207.68,45.18 207.84,45.20 207.99,45.26 208.13,45.33 208.26,45.42 208.39,45.51 208.49,45.64 208.59,45.76 208.66,45.90 208.73,46.05 208.76,46.20 208.80,46.36 208.79,46.52 208.78,46.68 208.74,46.83 208.70,46.98 208.62,47.12 208.54,47.26 208.43,47.37 208.32,47.49 208.19,47.57 208.05,47.66 207.90,47.71 207.75,47.76 206.49,50.39 205.22,53.03 197.37,54.77 189.51,56.52 174.15,59.78 158.78,63.04 139.93,68.00 121.08,72.96 104.81,78.69 88.54,84.42 79.95,88.71 71.37,92.99 69.00,94.69 66.63,96.39 66.46,96.40 66.30,96.40 66.14,96.36 65.98,96.33 65.84,96.25 65.69,96.18 65.57,96.08 65.45,95.97 65.35,95.84 65.26,95.71 65.20,95.55 65.14,95.40 65.11,95.24 65.09,95.08 65.11,94.92 65.12,94.76 65.18,94.60 65.23,94.45 65.32,94.32 65.41,94.18 65.53,94.07 65.65,93.96 65.80,93.88 65.94,93.80 66.10,93.76 66.25,93.72 70.07,93.08 73.89,92.44 80.67,91.48 87.44,90.53 90.19,90.08 92.93,89.64 94.05,88.38 95.17,87.12 97.02,83.71 98.87,80.30 102.64,73.44 106.40,66.59 109.93,57.32 113.46,48.06 115.38,42.27 117.29,36.48 119.07,34.93 120.85,33.38 120.74,33.27 120.62,33.16 120.54,33.03 120.45,32.90 120.40,32.75 120.35,32.60 120.33,32.44 120.32,32.28 120.34,32.12 120.37,31.97 120.43,31.82 120.49,31.68 120.58,31.55 120.68,31.42 120.80,31.32 120.92,31.22 121.06,31.15 121.20,31.08 121.36,31.05 121.51,31.01 121.67,31.02 121.83,31.02 121.98,31.07 122.14,31.11 122.27,31.19 122.41,31.26 124.60,33.11 126.79,34.95 131.89,38.72 137.00,42.48 146.39,48.16 155.79,53.84 167.00,60.14 178.21,66.44 181.29,67.27 184.36,68.11 184.51,68.23 184.66,68.34 184.77,68.49 184.89,68.64 184.96,68.82 185.04,68.99 185.07,69.18 185.10,69.36 185.09,69.55 185.08,69.74 185.02,69.92 184.96,70.10 184.86,70.26 184.76,70.42 184.63,70.55 184.49,70.69 184.33,70.78 184.17,70.88 183.99,70.93 183.81,70.99 183.62,71.00 183.43,71.01 183.24,70.97 183.06,70.93 182.89,70.86 182.71,70.78 182.39,69.37 182.07,67.97 177.64,65.30 173.22,62.63 164.79,57.71 156.37,52.79 148.55,48.81 140.74,44.82 135.25,43.88 129.75,42.93 127.16,44.91 124.56,46.88 123.67,50.97 122.78,55.05 123.22,60.86 123.66,66.67 124.70,71.28 125.73,75.89 128.18,82.70 130.63,89.52 130.53,89.64 130.43,89.77 130.30,89.86 130.17,89.96 130.02,90.02 129.88,90.09 129.72,90.11 129.56,90.14 129.40,90.12 129.24,90.11 129.09,90.06 128.93,90.01 128.80,89.93 128.66,89.84 128.55,89.73 128.44,89.61 128.36,89.47 128.28,89.33 128.23,89.18 128.19,89.03 128.18,88.87 128.18,88.71 128.21,88.55 128.24,88.39 128.31,88.25 128.38,88.10 129.94,86.48 131.50,84.86 133.45,81.87 135.40,78.87 135.97,74.29 136.54,69.71 134.24,66.49 131.94,63.27 126.02,62.04 120.10,60.82 109.38,61.53 98.66,62.23 86.80,64.44 74.93,66.64 66.34,68.59 57.75,70.54 51.59,71.26 45.43,71.99 41.33,71.38 37.23,70.76 35.07,69.19 32.92,67.62 32.16,65.33 31.40,63.04 29.66,63.39 27.93,63.73 27.85,63.93 27.77,64.12 27.65,64.29 27.52,64.46 27.36,64.59 27.20,64.72 27.01,64.81 26.82,64.91 26.62,64.95 26.41,64.99 26.21,64.99 26.00,64.98 25.79,64.92 25.59,64.87 25.41,64.76 25.23,64.66 25.08,64.52 24.93,64.37 24.81,64.20 24.70,64.02 24.63,63.82 24.56,63.63 24.54,63.42 24.53,63.21 24.56,63.00 24.59,62.80 24.58,62.36 24.56,61.92 25.03,60.72 25.49,59.52 26.27,57.30 27.04,55.08 28.93,50.30 30.82,45.53 32.66,43.07 34.49,40.61 34.53,40.42 34.57,40.24 34.66,40.07 34.74,39.90 34.87,39.76 34.99,39.62 35.14,39.51 35.30,39.40 35.47,39.33 35.65,39.26 35.84,39.23 36.02,39.20 36.21,39.22 36.40,39.24 36.58,39.31 36.76,39.37 36.91,39.48 37.07,39.58 37.20,39.72 37.33,39.86 37.42,40.03 37.51,40.19 37.55,40.38 37.60,40.56 37.61,40.75 37.61,40.94 38.05,41.92 38.49,42.91 38.17,45.71 37.85,48.51 36.07,51.84 34.29,55.16 30.66,59.59 27.03,64.03 20.84,67.71 14.66,71.39 6.32,73.38 -2.00,75.38 -11.06,75.14 -20.12,74.89 -29.37,72.66 -38.63,70.43 -45.60,66.23 -52.56,62.02 -54.97,57.62 -57.39,53.23 -55.85,48.91 -54.32,44.59 -50.65,38.26 -46.97,31.92 -41.81,27.09 -36.65,22.25 -27.23,14.71 -17.81,7.17 -11.85,3.55 -5.90,-0.06 -3.14,-0.78 -0.37,-1.51 -0.19,-1.53 -0.00,-1.56 0.18,-1.54 0.36,-1.51 0.54,-1.45 0.72,-1.38 0.87,-1.27 1.03,-1.17 1.15,-1.03 1.28,-0.89 1.37,-0.72 1.45,-0.55 1.50,-0.37 1.55,-0.19 1.55,-0.00 1.55,0.18 1.50,0.36 1.46,0.54 1.37,0.71 1.28,0.88 1.16,1.02 1.03,1.16 0.88,1.27 0.73,1.38 0.55,1.44 0.37,1.51 0.37,1.51 L 0.37,1.51 Z"></path></g><g transform="translate(708.7999877929688 585.5249938964844) rotate(0 106.39999389648438 74.79999542236328)" stroke="none"><path fill="#000000" d="M 1.56,0 Q 1.56,0 1.52,4.60 1.49,9.20 1.46,15.29 1.44,21.39 1.42,30.19 1.40,38.99 1.39,48.93 1.38,58.88 3.63,70.06 5.89,81.25 20.97,97.98 36.05,114.72 54.53,124.34 73.00,133.97 96.39,138.06 119.77,142.15 139.29,140.69 158.81,139.22 171.71,137.01 184.61,134.79 191.63,132.48 198.66,130.18 202.01,128.34 205.36,126.51 207.09,123.84 208.81,121.16 209.55,116.50 210.28,111.83 210.62,106.82 210.96,101.81 210.65,97.21 210.34,92.61 209.39,89.26 208.44,85.90 208.42,85.65 208.40,85.40 208.46,85.15 208.53,84.90 208.66,84.69 208.80,84.48 209.00,84.32 209.20,84.16 209.44,84.07 209.68,83.99 209.94,83.98 210.19,83.98 210.43,84.05 210.68,84.13 210.88,84.28 211.09,84.43 211.23,84.64 211.38,84.85 211.45,85.09 211.53,85.33 211.52,85.59 211.51,85.84 211.42,86.08 211.33,86.32 211.17,86.52 211.01,86.71 210.79,86.85 210.58,86.99 210.33,87.04 210.08,87.10 209.83,87.08 209.58,87.06 209.34,86.96 209.11,86.86 208.92,86.68 208.73,86.51 208.61,86.29 208.49,86.07 208.44,85.82 208.39,85.57 208.43,85.32 208.47,85.06 208.58,84.84 208.70,84.61 208.88,84.43 209.06,84.25 209.29,84.14 209.52,84.03 209.77,84.00 210.02,83.96 210.27,84.01 210.52,84.06 210.74,84.19 210.96,84.32 211.13,84.51 211.30,84.70 211.40,84.93 211.50,85.17 211.50,85.17 211.50,85.17 212.23,88.80 212.97,92.43 213.28,97.21 213.59,101.99 213.23,107.12 212.87,112.26 211.95,117.40 211.04,122.54 208.88,125.64 206.73,128.73 203.11,130.71 199.48,132.69 192.27,135.04 185.06,137.39 172.03,139.63 159.00,141.87 139.17,143.32 119.33,144.77 95.56,140.57 71.80,136.36 52.94,126.46 34.09,116.56 18.70,99.26 3.30,81.96 0.96,70.43 -1.38,58.89 -1.39,48.94 -1.40,38.99 -1.42,30.19 -1.44,21.39 -1.46,15.29 -1.49,9.20 -1.52,4.60 -1.56,0 -1.53,-0.18 -1.51,-0.37 -1.45,-0.54 -1.38,-0.72 -1.27,-0.88 -1.16,-1.03 -1.02,-1.16 -0.88,-1.28 -0.72,-1.37 -0.55,-1.46 -0.37,-1.50 -0.18,-1.55 0.00,-1.55 0.18,-1.55 0.37,-1.50 0.55,-1.46 0.72,-1.37 0.88,-1.28 1.02,-1.16 1.16,-1.03 1.27,-0.88 1.38,-0.72 1.45,-0.54 1.51,-0.37 1.53,-0.18 1.56,0.00 1.56,0.00 L 1.56,0 Z"></path></g><g stroke-linecap="round"><g transform="translate(720 582.3249969482422) rotate(0 136 -0.8000030517578125)"><path d="M0.84 0.63 C46.22 0.38, 227.5 -0.8, 272.87 -1.37 M-0.17 -0.09 C45.07 -0.74, 226.88 -3.04, 272.38 -3.38" stroke="#000000" stroke-width="1" fill="none"></path></g></g></svg>